<svg width="768" height="864" viewBox="0 0 35 38" fill="none" xmlns="http://www.w3.org/2000/svg">
  <path d="M13.7188 2.33554C11.7848 3.62042 7.91006 6.19688 5.10607 8.06397L0 11.4569V19.039V26.6145L1.55926 27.645C2.40915 28.2072 6.24372 30.7502 10.0716 33.2999C13.8995 35.8496 17.0849 37.9643 17.1451 37.9977C17.2321 38.0446 18.2694 37.382 21.9969 34.8993C24.6001 33.166 28.4749 30.5896 30.6029 29.1775C32.7243 27.7655 34.4643 26.5944 34.4576 26.5609C34.4509 26.4806 29.4184 23.168 29.3047 23.1747C29.2445 23.1747 27.906 24.038 26.3267 25.0887C24.7474 26.1393 22.0839 27.906 20.4109 29.0236C18.7379 30.1345 17.3325 31.058 17.2857 31.0781C17.2188 31.1049 15.3182 29.8601 6.97985 24.3124L5.76189 23.5026L5.7552 19.4071V15.3115L9.95115 12.5209C12.2599 10.9884 14.1872 9.71692 14.2341 9.70354C14.2809 9.68346 14.3211 9.64331 14.3211 9.61654C14.3211 9.58977 13.7991 9.2284 13.17 8.81349C11.8651 7.96359 11.9454 8.02382 11.9855 7.97698C12.0324 7.93013 23.6164 6.77909 23.6566 6.81925C23.6699 6.83263 23.5829 7.49515 23.4625 8.28481C23.3353 9.07448 23.061 10.8546 22.8468 12.2465C22.6327 13.6318 22.4386 14.8096 22.4118 14.8498C22.3784 14.9033 21.9902 14.6825 21.1939 14.1538L20.0294 13.3775L15.7666 16.1949C13.431 17.7474 11.5104 19.039 11.5104 19.0591C11.5104 19.0792 12.7953 19.9558 14.3746 21.0065L17.2321 22.9137L20.8459 20.5113C30.1144 14.3479 32.8113 12.5544 33.601 12.0257L34.4509 11.4502L30.8305 9.03433C26.755 6.32403 17.908 0.441677 17.4998 0.173996L17.2321 0L13.7188 2.33554Z" fill="#E74623"/>
</svg>
